<?xml version="1.0" encoding="utf-8"?>
<!-- Generator: Adobe Illustrator 16.0.0, SVG Export Plug-In . SVG Version: 6.00 Build 0)  -->
<!DOCTYPE svg PUBLIC "-//W3C//DTD SVG 1.1//EN" "http://www.w3.org/Graphics/SVG/1.1/DTD/svg11.dtd">
<svg version="1.1" id="Layer_1" xmlns="http://www.w3.org/2000/svg" xmlns:xlink="http://www.w3.org/1999/xlink" x="0px" y="0px"
	 width="1500px" height="1500px" viewBox="0 0 1500 1500" enable-background="new 0 0 1500 1500" xml:space="preserve">
<path fill="#FFF0F0" d="M639.184,651.429c-34.897,0-62.449,30.612-62.449,67.959s28.164,67.959,62.449,67.959
	c34.898,0,62.449-30.612,62.449-67.959C702.245,682.041,674.082,651.429,639.184,651.429z M862.653,651.429
	c-34.898,0-62.449,30.612-62.449,67.959s28.163,67.959,62.449,67.959c34.897,0,62.448-30.612,62.448-67.959
	S897.551,651.429,862.653,651.429z"/>
<path fill="#FFF0F0" d="M1160.204,137.755H339.796c-69.184,0-125.51,56.327-125.51,126.123v827.755
	c0,69.796,56.327,126.122,125.51,126.122h694.286l-32.449-113.266l78.367,72.857l74.082,68.571l131.632,116.327V263.877
	C1285.714,194.082,1229.388,137.755,1160.204,137.755z M923.877,937.347c0,0-22.04-26.326-40.408-49.592
	c80.205-22.652,110.816-72.856,110.816-72.856c-25.102,16.53-48.979,28.163-70.408,36.122c-30.611,12.857-60,21.429-88.775,26.326
	c-58.775,11.021-112.652,7.959-158.571-0.612c-34.897-6.734-64.897-16.53-90-26.326c-14.081-5.51-29.388-12.245-44.693-20.816
	c-1.837-1.225-3.674-1.837-5.511-3.062c-1.225-0.612-1.836-1.225-2.448-1.836c-11.021-6.123-17.144-10.408-17.144-10.408
	s29.388,48.979,107.143,72.244c-18.367,23.266-41.02,50.816-41.02,50.816c-135.307-4.285-186.735-93.061-186.735-93.061
	c0-197.144,88.163-356.939,88.163-356.939c88.164-66.122,172.041-64.285,172.041-64.285l6.123,7.347
	c-110.204,31.837-161.021,80.204-161.021,80.204s13.469-7.347,36.122-17.755c65.511-28.775,117.551-36.735,138.979-38.571
	c3.674-0.612,6.735-1.225,10.408-1.225c37.347-4.898,79.592-6.123,123.674-1.225c58.163,6.734,120.612,23.877,184.286,58.775
	c0,0-48.368-45.918-152.449-77.755l8.571-9.796c0,0,83.878-1.837,172.041,64.285c0,0,88.163,159.796,88.163,356.939
	C1111.225,844.286,1059.184,933.062,923.877,937.347z"/>
</svg>
